<?xml version="1.0" encoding="UTF-8"?>
<svg version="1.1" xmlns="http://www.w3.org/2000/svg" width="402" height="402">
<path d="M0 0 C16.32458081 -0.18697683 32.64881374 -0.32800036 48.97420692 -0.41449738 C56.5546208 -0.45572927 64.13436895 -0.51192929 71.71435547 -0.60351562 C78.32201375 -0.68331552 84.92918991 -0.73487983 91.53731668 -0.75270796 C95.03579615 -0.7631283 98.53289653 -0.78756856 102.03093338 -0.84584045 C105.93836329 -0.91040274 109.84445073 -0.91191533 113.75244141 -0.90820312 C114.90906281 -0.93696533 116.0656842 -0.96572754 117.25735474 -0.99536133 C124.93774849 -0.91630739 124.93774849 -0.91630739 128.02228546 1.74444103 C129.56119535 3.76631714 130.80487036 5.76156074 132 8 C132.91313965 9.37442261 132.91313965 9.37442261 133.84472656 10.77661133 C134.35487305 11.5992749 134.86501953 12.42193848 135.390625 13.26953125 C139.07787492 19.14342965 142.8969642 24.92131675 146.75 30.6875 C147.4510083 31.73768311 148.1520166 32.78786621 148.87426758 33.86987305 C154.06074231 41.62609944 159.31505671 49.33173907 164.62402344 57.00439453 C166.11288949 59.16372582 167.59256956 61.32913591 169.0703125 63.49609375 C174.78205128 71.87163419 180.54013766 80.20966224 186.375 88.5 C190.40934592 94.23987013 194.357162 99.99613423 198.06640625 105.953125 C202.57906318 113.06397834 207.32934228 120.02371382 212.01171875 127.0234375 C214.08506265 130.12734329 216.15260191 133.23505012 218.21875 136.34375 C218.92201416 137.40118408 219.62527832 138.45861816 220.34985352 139.5480957 C221.70272447 141.58254403 223.05482405 143.61750561 224.40600586 145.65307617 C227.93938474 150.96198587 231.52748527 156.22453673 235.19848633 161.43920898 C237.14516702 164.20635003 239.0776671 166.98302074 241.0078125 169.76171875 C241.68457031 170.73560547 242.36132812 171.70949219 243.05859375 172.71289062 C244.44423186 174.70752848 245.82964599 176.70232194 247.21484375 178.69726562 C247.88902344 179.66728516 248.56320313 180.63730469 249.2578125 181.63671875 C250.22122559 183.02576416 250.22122559 183.02576416 251.20410156 184.44287109 C252.74753665 186.64052458 254.3297268 188.80058744 255.9296875 190.95703125 C257.74164856 193.62027213 258.4769915 194.94969691 259 198 C256.78919506 204.40463493 251.93769467 210.00229938 247.9934082 215.4453125 C243.65224488 221.43901041 239.56386486 227.58285996 235.48583984 233.75732422 C233.84783582 236.22967141 232.20013258 238.6953649 230.55078125 241.16015625 C222.8497798 252.67281478 215.21430463 264.22606708 207.625 275.8125 C198.78531333 289.30743602 189.86743839 302.747938 180.89990234 316.15820312 C178.34617432 319.97796594 175.79777816 323.80126737 173.25 327.625 C172.32035132 329.01955713 171.39066138 330.41408676 170.4609375 331.80859375 C169.94112305 332.58831543 169.42130859 333.36803711 168.88574219 334.17138672 C153.09082031 357.86376953 153.09082031 357.86376953 151.72340393 359.9147644 C150.82101236 361.26843806 149.91877987 362.62221777 149.01670837 363.97610474 C146.77830547 367.33522106 144.53713976 370.69242965 142.2902832 374.04589844 C137.90579654 380.59480379 133.56208215 387.15801879 129.4375 393.875 C125.12041565 400.87958435 125.12041565 400.87958435 124 402 C122.36776544 402.09605864 120.7313561 402.12187821 119.09629822 402.12025452 C117.50396111 402.12231651 117.50396111 402.12231651 115.87945557 402.12442017 C114.1175589 402.11902725 114.1175589 402.11902725 112.32006836 402.11352539 C111.09097244 402.11367142 109.86187653 402.11381744 108.59553528 402.1139679 C105.21551328 402.11338892 101.83555171 402.10835964 98.45554042 402.10139394 C94.92678806 402.09515988 91.39803497 402.09455656 87.86927795 402.09336853 C81.18276881 402.09025537 74.49627594 402.08204218 67.80977398 402.07201904 C60.19925697 402.06085744 52.5887392 402.05534733 44.97821605 402.05032361 C29.31880126 402.03985956 13.65940273 402.02226041 -2 402 C-1.29891661 396.81342749 0.28085393 393.66085479 3.4375 389.5625 C7.3991995 384.31308391 11.09331107 378.90987212 14.72584534 373.42939758 C18.41728745 367.86282962 22.15175741 362.32639065 25.8984375 356.796875 C27.13287429 354.97269806 28.36724844 353.14847874 29.6015625 351.32421875 C31.48424846 348.5421574 33.36775823 345.76067258 35.25390625 342.98095703 C42.19729625 332.74525502 49.02703425 322.46442017 55.58622742 311.97793579 C61.08066683 303.22104212 66.87741755 294.67431184 72.6875 286.125 C73.76132341 284.53923562 74.83489142 282.95329826 75.90820312 281.3671875 C81.2626501 273.46174677 86.65009319 265.58082789 92.10400391 257.74365234 C95.04175091 253.49250621 97.89525089 249.18682598 100.74951172 244.87939453 C102.22363402 242.66389405 103.7073966 240.45498337 105.19140625 238.24609375 C111.66408236 228.59751288 118.03667294 218.90270099 124.18066406 209.04077148 C124.64053711 208.30415283 125.10041016 207.56753418 125.57421875 206.80859375 C125.99364746 206.13038574 126.41307617 205.45217773 126.84521484 204.75341797 C128 203 128 203 129.95703125 200.78515625 C131.2641632 199.00770715 131.2641632 199.00770715 130.5234375 196.76171875 C128.42825388 192.96352691 126.06713356 189.39522225 123.625 185.8125 C122.52458457 184.18109413 121.42432822 182.54958095 120.32421875 180.91796875 C119.76524902 180.09216309 119.2062793 179.26635742 118.63037109 178.41552734 C116.68312494 175.53052383 114.75775729 172.63147439 112.83447266 169.73046875 C101.60955035 152.81265505 90.22874641 135.99164909 78.5625 119.375 C69.65187845 106.66110678 61.10314181 93.70539573 52.50732422 80.77783203 C43.44629469 67.15256108 34.30984495 53.58239409 25.08886719 40.06494141 C22.98450675 36.97726715 20.88609366 33.88562447 18.7890625 30.79296875 C17.46378186 28.84098273 16.13827036 26.88915344 14.8125 24.9375 C14.20100098 24.03628418 13.58950195 23.13506836 12.95947266 22.20654297 C9.19886709 16.68743349 5.33908511 11.28477545 1.22265625 6.0234375 C0 4 0 4 0 0 Z " fill="#37CBE8" transform="translate(5,0)"/>
<path d="M0 0 C0.92732374 0.00184359 1.85464748 0.00368717 2.81007195 0.00558662 C3.87300468 0.0028373 4.93593742 0.00008797 6.03108025 -0.00274467 C7.20208275 0.00444588 8.37308525 0.01163643 9.57957268 0.01904488 C10.80881462 0.01875282 12.03805656 0.01846077 13.30454826 0.01815987 C16.68045055 0.0193166 20.0561099 0.02936476 23.43196917 0.04330778 C26.95804094 0.05578847 30.48411576 0.05698353 34.01020622 0.0593586 C40.6896224 0.06558121 47.3689733 0.08200256 54.04836071 0.10205758 C61.65163897 0.12439231 69.25492031 0.13540389 76.8582232 0.14544845 C92.50089185 0.16636814 108.14349534 0.20155925 123.78611565 0.24609566 C123.13081147 3.88212902 122.42700618 6.17903542 120.1962719 9.14453316 C119.66421135 9.86358833 119.1321508 10.58264351 118.58396721 11.32348824 C118.01130119 12.08169868 117.43863518 12.83990913 116.84861565 13.62109566 C115.65500532 15.23535367 114.46362648 16.85126388 113.2743969 18.46875191 C112.68223381 19.27328804 112.09007072 20.07782417 111.4799633 20.90674019 C109.07290615 24.23110191 106.79097597 27.62983646 104.53611565 31.05859566 C101.64401551 35.44645205 98.72723056 39.80806545 95.72361565 44.12109566 C91.26603598 50.5308423 86.86539392 56.97860456 82.47361565 63.43359566 C81.91577385 64.25349983 81.91577385 64.25349983 81.34666252 65.08996773 C76.76646695 71.82481986 72.22000852 78.58006729 67.72361565 85.37109566 C62.41981978 93.37809862 56.93583833 101.25520553 51.43528557 109.12793159 C47.47037486 114.80725612 43.57744199 120.51846026 39.77049065 126.30468941 C37.17798365 130.14751966 34.47841267 133.91031316 31.78611565 137.68359566 C26.79206539 144.69175581 22.166294 151.83844109 17.78611565 159.24609566 C15.60642815 159.18750191 15.60642815 159.18750191 12.78611565 158.24609566 C10.86202285 155.91740391 9.2684054 153.71651209 7.66111565 151.18359566 C6.80525183 149.87961447 5.94842367 148.57626589 5.09080315 147.27343941 C4.59548088 146.5127314 4.10015862 145.75202339 3.58982658 144.96826363 C1.36790105 141.61492446 -0.91842886 138.30870536 -3.20607185 135.00000191 C-10.61633332 124.26465996 -17.80870731 113.38445656 -25.02540779 102.51855659 C-26.22517385 100.71274321 -27.42552809 98.90732045 -28.62648201 97.10229683 C-29.79985267 95.33804447 -30.97143441 93.57260088 -32.14113045 91.80591011 C-34.88810755 87.67057055 -37.67116255 83.5751987 -40.57325935 79.54687691 C-41.0937989 78.81767036 -41.61433846 78.08846382 -42.15065193 77.33716011 C-43.12190517 75.98385216 -44.10541394 74.6392214 -45.10328865 73.30542183 C-47.074751 70.54924234 -48.24227859 68.89091406 -48.0903492 65.44067574 C-47.03505011 62.79831263 -45.70831534 61.0815337 -43.83888435 58.93359566 C-40.2718433 54.64170134 -37.03749448 50.22962061 -33.90138435 45.62109566 C-33.20239021 44.59435738 -33.20239021 44.59435738 -32.48927498 43.54687691 C-31.53469243 42.14177319 -30.58108429 40.73600701 -29.62843513 39.32959175 C-27.3813436 36.01984388 -25.10911491 32.72749381 -22.83888435 29.43359566 C-19.78091732 24.99274055 -16.73421284 20.54454136 -13.7021656 16.08593941 C-13.11161385 15.21880318 -12.52106209 14.35166695 -11.91261482 13.45825386 C-10.75747481 11.76141178 -9.6040922 10.06337172 -8.45265388 8.36401558 C-7.66737312 7.21123116 -7.66737312 7.21123116 -6.8662281 6.03515816 C-6.1700135 5.00962837 -6.1700135 5.00962837 -5.45973396 3.96338081 C-2.81109316 0.31248146 -2.81109316 0.31248146 0 0 Z " fill="#37CBE8" transform="translate(275.2138843536377,-0.2460956573486328)"/>
<path d="M0 0 C2.13744831 -0.37752342 2.13744831 -0.37752342 4.8384552 -0.38095093 C6.37153069 -0.39364014 6.37153069 -0.39364014 7.93557739 -0.40658569 C9.62419388 -0.39747665 9.62419388 -0.39747665 11.34692383 -0.38818359 C13.12021812 -0.39606903 13.12021812 -0.39606903 14.92933655 -0.40411377 C18.17750753 -0.41507861 21.42531361 -0.41247448 24.67347932 -0.40297651 C28.07177144 -0.39539132 31.47003884 -0.40242283 34.86833191 -0.40713501 C40.57901395 -0.41259815 46.28957974 -0.40538875 52.00024414 -0.39111328 C58.59860195 -0.37480901 65.19668135 -0.38005666 71.79503232 -0.3965925 C77.45967164 -0.41021955 83.12422725 -0.41212039 88.78887767 -0.40427649 C92.17215737 -0.39960362 95.55530639 -0.39896391 98.93857765 -0.40888596 C102.71420765 -0.41649734 106.48930247 -0.40489846 110.26489258 -0.38818359 C111.38456421 -0.39425629 112.50423584 -0.40032898 113.65783691 -0.40658569 C114.68834671 -0.39812622 115.71885651 -0.38966675 116.78059387 -0.38095093 C118.1192889 -0.37925431 118.1192889 -0.37925431 119.48502827 -0.37752342 C123.72666307 0.25919009 126.31354182 2.11526679 128.90942383 5.4609375 C129.50263428 6.42257812 130.09584473 7.38421875 130.70703125 8.375 C131.37669922 9.44363281 132.04636719 10.51226562 132.73632812 11.61328125 C133.42146484 12.73089844 134.10660156 13.84851563 134.8125 15 C139.37804575 22.3660384 144.03743524 29.54055165 149.1940918 36.5078125 C152.080157 40.4906371 154.59903293 44.67149611 157.1328125 48.8828125 C160.14117531 53.80377684 163.47043212 58.42707425 166.88574219 63.07324219 C170.44128571 67.99516548 173.77679565 73.06076028 177.125 78.125 C177.80175781 79.14464844 178.47851562 80.16429687 179.17578125 81.21484375 C180.49842783 83.20776771 181.81788845 85.20281065 183.13378906 87.20019531 C184.34395938 89.01576741 185.57405204 90.81827729 186.82714844 92.60449219 C187.37661133 93.39243164 187.92607422 94.18037109 188.4921875 94.9921875 C189.22091064 96.01481689 189.22091064 96.01481689 189.96435547 97.05810547 C191 99 191 99 191 103 C174.69277736 103.23380727 158.3860999 103.41004079 142.07760525 103.51812172 C134.5048609 103.56964448 126.93315905 103.63985811 119.36108398 103.75439453 C112.75963944 103.85420127 106.15894989 103.91861234 99.55677181 103.94088495 C96.06182905 103.95390205 92.56904567 103.98438774 89.07479668 104.05730057 C85.16982052 104.13811967 81.26693867 104.13989107 77.36108398 104.13525391 C76.20805786 104.17120667 75.05503174 104.20715942 73.86706543 104.24420166 C66.18368943 104.1454729 66.18368943 104.1454729 62.78409004 100.85563278 C60.97715586 98.30800895 59.46772657 95.75432069 58 93 C57.04862046 91.49308859 56.08815719 89.99181833 55.11328125 88.5 C54.17794454 87.00108622 53.2443949 85.50105602 52.3125 84 C43.83516423 70.47264963 34.89645423 57.27039137 25.86010742 44.11206055 C21.65235367 37.97745618 17.51899473 31.79606016 13.40527344 25.59814453 C8.35703122 18.00552071 3.18871185 10.49707579 -2 3 C-1.34 2.01 -0.68 1.02 0 0 Z " fill="#36CBE8" transform="translate(208,299)"/>
<path d="M0 0 C4.87305969 4.29975855 7.8200442 9.37224317 11 15 C9.68 15 8.36 15 7 15 C5.078125 12.734375 5.078125 12.734375 3.25 9.75 C2.63640625 8.77546875 2.0228125 7.8009375 1.390625 6.796875 C0 4 0 4 0 0 Z " fill="#28C6E5" transform="translate(66,89)"/>
<path d="M0 0 C3.25694723 3.02430814 5.72350913 6.17874747 8 10 C8 10.99 8 11.98 8 13 C4.0884532 11.52041491 2.7725476 9.46042529 0.75 5.875 C-0.03117187 4.50988281 -0.03117187 4.50988281 -0.828125 3.1171875 C-1.21484375 2.41851562 -1.6015625 1.71984375 -2 1 C-1.34 0.67 -0.68 0.34 0 0 Z " fill="#29BDDD" transform="translate(266,121)"/>
<path d="M0 0 C0.66 0.66 1.32 1.32 2 2 C-2.455 7.94 -2.455 7.94 -7 14 C-7.66 13.67 -8.32 13.34 -9 13 C-6.76869284 8.16550114 -3.9810131 3.58291179 0 0 Z " fill="#2FCAE9" transform="translate(376,32)"/>
<path d="M0 0 C0.66 0.66 1.32 1.32 2 2 C1.07615834 3.67427615 0.13549431 5.33928003 -0.8125 7 C-1.59560547 8.3921875 -1.59560547 8.3921875 -2.39453125 9.8125 C-2.92433594 10.534375 -3.45414062 11.25625 -4 12 C-4.99 12 -5.98 12 -7 12 C-6.38722388 9.03824877 -5.74627478 7.61941217 -4 5 C-3.34 5 -2.68 5 -2 5 C-1.855625 4.360625 -1.71125 3.72125 -1.5625 3.0625 C-1 1 -1 1 0 0 Z " fill="#27D0EC" transform="translate(297,147)"/>
<path d="M0 0 C2.64752004 2.57784846 4.94432065 4.91648098 7 8 C7 8.99 7 9.98 7 11 C2.79609368 9.49860488 1.10889262 6.82724957 -1 3 C-0.67 2.01 -0.34 1.02 0 0 Z " fill="#2CBCEC" transform="translate(126,178)"/>
<path d="M0 0 C1.32 0 2.64 0 4 0 C3.47557578 3.7758544 2.67345333 6.22372155 0 9 C-0.99 9 -1.98 9 -3 9 C-2.01 6.03 -1.02 3.06 0 0 Z " fill="#28C4E4" transform="translate(395,0)"/>
<path d="M0 0 C2.33524782 2.25740623 4.18705073 4.2805761 6 7 C5.625 9.1875 5.625 9.1875 5 11 C2.3513141 7.80331012 0.06007659 4.60513403 -2 1 C-1.34 0.67 -0.68 0.34 0 0 Z " fill="#26D1E8" transform="translate(133,188)"/>
<path d="M0 0 C3.27742098 3.10026309 5.93104837 5.97098894 8 10 C8 10.66 8 11.32 8 12 C4.52999689 10.8433323 4.15298541 10.14273284 2.3125 7.125 C1.87550781 6.42632812 1.43851563 5.72765625 0.98828125 5.0078125 C0 3 0 3 0 0 Z " fill="#31C2E4" transform="translate(50,66)"/>
<path d="M0 0 C0.66 0.33 1.32 0.66 2 1 C-0.64 4.63 -3.28 8.26 -6 12 C-6.66 11.34 -7.32 10.68 -8 10 C-6.85500893 8.52018126 -5.708983 7.04116318 -4.5625 5.5625 C-3.60537109 4.32693359 -3.60537109 4.32693359 -2.62890625 3.06640625 C-1 1 -1 1 0 0 Z " fill="#2BC8E5" transform="translate(366,47)"/>
<path d="M0 0 C1.9375 0.75 1.9375 0.75 4 2 C4.625 4.0625 4.625 4.0625 5 6 C5.66 6.33 6.32 6.66 7 7 C6.67 8.32 6.34 9.64 6 11 C0 4 0 4 0 0 Z " fill="#28C3E1" transform="translate(232,72)"/>
<path d="M0 0 C0.66 0 1.32 0 2 0 C1.45276317 3.37462715 0.9451 5.08235 -1 8 C-1.99 8 -2.98 8 -4 8 C-2.87548273 5.0280615 -1.77706209 2.66559313 0 0 Z " fill="#2CCEEC" transform="translate(130,394)"/>
<path d="M0 0 C0.66 0.33 1.32 0.66 2 1 C-0.31 3.64 -2.62 6.28 -5 9 C-5.66 8.67 -6.32 8.34 -7 8 C-6.21366078 6.85050412 -5.42073742 5.70551011 -4.625 4.5625 C-4.18414062 3.92441406 -3.74328125 3.28632813 -3.2890625 2.62890625 C-2 1 -2 1 0 0 Z " fill="#3EDCF0" transform="translate(138,198)"/>
<path d="M0 0 C0.66 0.66 1.32 1.32 2 2 C0.37660195 3.70884005 -1.29319053 5.37446717 -3 7 C-3.66 7 -4.32 7 -5 7 C-3.70700306 4.11562221 -2.34058637 2.12780579 0 0 Z " fill="#29D0DF" transform="translate(376,32)"/>
<path d="M0 0 C0.66 0.33 1.32 0.66 2 1 C2 1.66 2 2.32 2 3 C2.66 3 3.32 3 4 3 C4 3.66 4 4.32 4 5 C3.01 5.33 2.02 5.66 1 6 C0.01 4.35 -0.98 2.7 -2 1 C-1.34 0.67 -0.68 0.34 0 0 Z " fill="#26BCE8" transform="translate(272,396)"/>
<path d="M0 0 C0.66 0.66 1.32 1.32 2 2 C0.515 4.475 0.515 4.475 -1 7 C-1.99 6.67 -2.98 6.34 -4 6 C-2.68 4.02 -1.36 2.04 0 0 Z " fill="#29D0EC" transform="translate(217,264)"/>
</svg>
